<?xml version="1.0" encoding="iso-8859-1"?>
<!-- Generator: Adobe Illustrator 19.0.0, SVG Export Plug-In . SVG Version: 6.00 Build 0)  -->
<svg version="1.1" id="Capa_1" xmlns="http://www.w3.org/2000/svg" xmlns:xlink="http://www.w3.org/1999/xlink" x="0px" y="0px"
	 viewBox="0 0 512 512" style="enable-background:new 0 0 512 512;" xml:space="preserve">
<g>
	<g>
		<rect x="211" y="362" width="90" height="60"/>
	</g>
</g>
<g>
	<g>
		<rect x="181" y="91" width="150" height="60"/>
	</g>
</g>
<g>
	<g>
		<path d="M366.127,295.291C344.462,284.466,331,262.684,331,238.455V182H181v56.455c0,24.229-13.462,46.011-35.127,56.836
			C130.536,302.967,121,318.392,121,335.545V467c0,24.814,20.186,45,45,45h180c24.814,0,45-20.186,45-45V335.545
			C391,318.392,381.464,302.967,366.127,295.291z M331,437c0,8.291-6.709,15-15,15H196c-8.291,0-15-6.709-15-15v-90
			c0-8.291,6.709-15,15-15h120c8.291,0,15,6.709,15,15V437z"/>
	</g>
</g>
<g>
	<g>
		<path d="M331,0H181c-16.569,0-30,13.431-30,30c0,16.569,13.431,30,30,30h150c16.569,0,30-13.431,30-30C361,13.431,347.569,0,331,0
			z"/>
	</g>
</g>
<g>
</g>
<g>
</g>
<g>
</g>
<g>
</g>
<g>
</g>
<g>
</g>
<g>
</g>
<g>
</g>
<g>
</g>
<g>
</g>
<g>
</g>
<g>
</g>
<g>
</g>
<g>
</g>
<g>
</g>
</svg>
