<svg id="Capa_1" enable-background="new 0 0 512 512" height="512" viewBox="0 0 512 512" width="512" xmlns="http://www.w3.org/2000/svg"><g><g><path d="m246.969 257.481 9.321 9.463 12.201-12.017c20.706-20.393 44.501-36.556 70.307-48.077v-39.797c0-18.78-15.279-34.06-34.06-34.06h-97.477c-18.78 0-34.059 15.279-34.059 34.06v39.516c27.682 12.204 52.485 29.309 73.767 50.912z"/><path d="m436.176 215.217c-55.48 0-107.806 21.44-147.335 60.372l-32.86 32.364-29.67-30.12c-19.64-19.937-42.687-35.523-68.501-46.331-25.815-10.807-53.093-16.286-81.079-16.286h-76.731v30c10.117 0 18.348 8.231 18.348 18.349s-8.231 18.347-18.348 18.347v30c10.117 0 18.348 8.231 18.348 18.349 0 10.116-8.231 18.348-18.348 18.348v30c10.117 0 18.348 8.23 18.348 18.348s-8.231 18.347-18.348 18.347v30c10.117 0 18.348 8.23 18.348 18.348s-8.231 18.348-18.348 18.348v30h1.714v-.029c.043-.001.085-.006.128-.008v.037h74.013c55.481 0 107.806-21.439 147.335-60.371l32.861-32.364 29.672 30.119c19.639 19.936 42.685 35.523 68.5 46.331 25.814 10.806 53.092 16.285 81.078 16.285h76.699v-30c-10.117 0-18.348-8.229-18.348-18.348s8.229-18.348 18.348-18.348v-30c-10.117 0-18.348-8.231-18.348-18.349s8.229-18.348 18.348-18.348v-30c-10.117 0-18.348-8.23-18.348-18.348s8.229-18.349 18.348-18.349v-30c-10.117 0-18.348-8.23-18.348-18.348s8.229-18.348 18.348-18.348v-30h-1.714-74.11zm-69.432 130.547h-18.299c-23.293 0-46.193 6.248-66.202 17.844 20.009 11.597 42.909 17.845 66.202 17.845h18.299v30h-18.299c-33.036 0-65.428-10.237-92.445-29.015-27.019 18.776-59.409 29.015-92.445 29.015h-18.3v-30h18.3c23.292 0 46.191-6.248 66.201-17.844-20.01-11.597-42.909-17.844-66.201-17.844h-18.299v-30h18.299c33.036 0 65.427 10.236 92.445 29.014 27.018-18.777 59.41-29.014 92.445-29.014h18.299z"/></g><path d="m479.9 140.57c0 18.62-8.95 35.19-22.78 45.65h-20.94c-23.13 0-45.76 3.28-67.38 9.61v-28.78c0-35.32-28.74-64.05-64.06-64.05h-97.48c-35.32 0-64.06 28.73-64.06 64.05v28.6c-21.54-6.26-43.8-9.43-66.47-9.43h-21.72c-13.82-10.46-22.77-27.03-22.77-45.66 0-16.4 6.94-31.22 18.04-41.66-11.1-10.45-18.04-25.26-18.04-41.67h-.14l.04-2.14c1.07-28.92 23.7-52.41 52.25-54.86.12-.01.23-.02.35-.03.77-.06 1.54-.11 2.31-.14.09-.01.18-.02.28-.02l2.14-.04c16.35.04 31.11 6.97 41.53 18.04 10.44-11.1 25.26-18.04 41.67-18.04 16.4 0 31.22 6.94 41.66 18.04 10.45-11.1 25.26-18.04 41.67-18.04s31.22 6.94 41.67 18.04c10.44-11.1 25.26-18.04 41.66-18.04 16.41 0 31.23 6.94 41.67 18.04 10.45-11.1 25.26-18.04 41.67-18.04l.021.02c.399-.02.809-.02 1.209-.02 31.199 0 56.5 25.3 56.5 56.5 0 10.42-2.82 20.18-7.74 28.56-2.88 5.16-6.53 9.82-10.8 13.84 11.1 10.44 18.04 25.26 18.04 41.67z"/></g></svg>