<svg id="Capa_1" enable-background="new 0 0 512 512" height="512" viewBox="0 0 512 512" width="512" xmlns="http://www.w3.org/2000/svg"><g><path d="m67.32 356.785c10.102-6.172 17.197-15.908 19.977-27.416 5.344-22.126-7.256-44.748-28.381-52.186l-21.47 85.573c10.35 1.617 20.832-.448 29.874-5.971z"/><circle cx="232.053" cy="279.947" r="52.462"/><path d="m126.46 434.437c11.524-19.272 29.848-32.968 51.596-38.564 40.322-10.375 81.462 10.201 98.19 46.817l126.794-31.812c1.599-11.413 5.152-22.536 8.621-33.384 5.129-16.038 9.974-31.188 6.834-42.899-3.34-12.456-15.428-23.354-28.225-34.891-11.091-9.999-22.559-20.339-30.061-33.284-7.644-13.191-10.964-28.466-14.174-43.238-3.623-16.671-7.045-32.418-15.923-41.296-8.878-8.877-24.625-12.3-41.297-15.923-14.772-3.21-30.046-6.53-43.238-14.174-12.945-7.502-23.284-18.97-33.282-30.061-11.538-12.797-22.435-24.886-34.891-28.225-11.712-3.141-26.86 1.705-42.899 6.834-10.848 3.469-21.971 7.022-33.383 8.621l-34.873 138.992c17.513 5.412 32.248 16.945 41.743 32.768 10.102 16.835 13.127 36.619 8.516 55.707-4.664 19.311-16.569 35.649-33.522 46.006-11.826 7.225-25.121 10.935-38.636 10.935-4.737 0-9.501-.464-14.239-1.385l-30.111 120.019 114.616-28.757c-1.099-16.986 2.93-33.899 11.844-48.806zm190.728-71.32h31.781v30.053h-31.781zm-85.135-165.685c45.499 0 82.515 37.016 82.515 82.515s-37.016 82.515-82.515 82.515-82.515-37.016-82.515-82.515 37.016-82.515 82.515-82.515zm-107.859-39.127h31.781v30.053h-31.781zm-36.847 296.6h-31.781v-30.053h31.781z"/><path d="m435.402 402.758 76.598-19.218c-9.012-98.378-52.253-190.635-122.578-260.961-70.327-70.326-162.584-113.567-260.963-122.579l-19.218 76.597c5.209-1.397 10.594-3.119 16.109-4.883 14.323-4.581 29.007-9.277 43.826-9.277 5.323 0 10.662.606 16.011 2.04 21.041 5.642 36.123 22.371 49.429 37.13 8.831 9.796 17.173 19.049 26.029 24.181 9.112 5.28 21.469 7.966 34.551 10.809 20.179 4.385 41.045 8.919 56.165 24.039s19.655 35.986 24.04 56.165c2.843 13.083 5.528 25.44 10.809 34.552 5.133 8.856 14.386 17.199 24.182 26.03 14.759 13.306 31.487 28.387 37.13 49.429 5.427 20.239-1.011 40.369-7.237 59.837-1.763 5.515-3.486 10.9-4.883 16.109z"/><path d="m185.546 424.978c-23.779 6.119-39.975 27.293-40.976 50.75l101.727-25.523c-12.058-20.464-36.627-31.435-60.751-25.227z"/></g></svg>