<svg height="512" viewBox="0 0 59 59" width="512" xmlns="http://www.w3.org/2000/svg"><g id="Page-1" fill="none" fill-rule="evenodd"><g id="030---Pasta" fill="rgb(0,0,0)" fill-rule="nonzero" transform="translate(-1 -1)"><path id="Shape" d="m26.88 38.67c2.46 0 2.46 2.21 4.91 2.21s2.46-2.21 4.92-2.21 4 3.55 5.73 1.89-1.07-2.34-1.93-5.18c-.68-2.26 2.27-2.65 2.27-5s-2.31-2.35-2.31-4.7c0-2.22 2.08-2.33 2.29-4.35.01-.11.02-.22.02-.34 0-2.34-2.31-2.34-2.31-4.69s2.31-2.35 2.31-4.69-2.31-2.35-2.31-4.69 3.71-3.82 1.97-5.48c-1.74-1.66-3.28 1.89-5.74 1.89s-2.46-2.21-4.92-2.21-2.46 2.21-4.92 2.21-2.46-2.21-4.92-2.21-2.45 2.21-4.91 2.21-2.46-2.21-4.92-2.21-2.45 2.21-4.91 2.21-4-3.55-5.74-1.89 1.98 3.13 1.98 5.48-2.31 2.35-2.31 4.7 2.31 2.35 2.31 4.7-2.31 2.34-2.31 4.69 2.31 2.34 2.31 4.69-2.31 2.35-2.31 4.69 2.31 2.35 2.31 4.69-3.71 3.82-1.98 5.48c1.75 1.66 3.28-1.89 5.75-1.89s2.46 2.21 4.92 2.21 2.46-2.21 4.92-2.21h.1c2.36.06 2.39 2.21 4.81 2.21 2.46 0 2.46-2.21 4.92-2.21zm-7.98-4.807c-2.4687163-.129991-4.9259135-.4256565-7.355-.885-.8127427-.1539869-1.4494666-.7879373-1.607-1.6-.46078418-2.4343337-.75745259-4.896882-.888-7.371-.12149899-2.0348546-.12149899-4.0751454 0-6.11.13001719-2.468052.42568281-4.9245823.885-7.353.1536198-.81313013.7876462-1.45032662 1.6-1.608 2.4350043-.46079856 4.8982187-.75746672 7.373-.888.3572656-.01786328.6969226.15622929.8910254.45669872.1941029.30046944.2131628.68166729.05 1.00000001-.1631627.31833272-.4837598.52543797-.8410254.54330127-2.3831237.1259049-4.7551163.4115462-7.1.855-.4510112 2.3463251-.7396959 4.7209571-.864 7.107-.1174993 1.9615753-.1174993 3.9284247 0 5.89.1259712 2.3831692.4119488 4.7551796.856 7.1 2.3463582.4511728 4.7209554.7405215 7.107.866 1.9619239.1169991 3.9290761.1169991 5.891 0 2.3831147-.1260096 4.7551003-.4116501 7.1-.855.4518189-2.3462276.7408417-4.7208925.865-7.107.1174993-1.9615753.1174993-3.9284247 0-5.89-.1253731-2.3851558-.4110176-4.7591795-.855-7.106-2.3463612-.4511541-4.720957-.7405027-7.107-.866-.5513863-.0274859-.9761841-.49659873-.949-1.048.009719-.26621742.1266378-.51720176.324188-.69591969.1975502-.17871794.4589546-.26999168.724812-.25308031 2.4713938.13024362 4.9312571.42624238 7.363.886.8132468.15376682 1.4506739.78762855 1.609 1.6.4601036 2.4344098.7564351 4.8969347.887 7.371.121499 2.0348546.121499 4.0751454 0 6.11-.1303391 2.4683041-.4256652 4.9251232-.884 7.354-.1549016.8124543-.7883284 1.4490483-1.6 1.608-2.434397.4601867-4.8969274.7565189-7.371.887-1.009.06-2.027.091-3.048.091s-2.045-.028-3.057-.089zm1.253-20.873c.0133282.2649683-.0791823.5243732-.257168.721114-.1779857.1967407-.4268571.3146905-.691832.327886-1.235.062-2.516.18-3.814.352-.172 1.3-.289 2.577-.351 3.813-.0266663.5326668-.4666665.9506671-1 .95h-.049c-.2649749-.0131955-.5138463-.1311453-.691832-.327886-.1779857-.1967408-.2704962-.4561457-.257168-.721114.077-1.534.236-3.13.474-4.745.0644712-.4360947.4069053-.7785288.843-.843 1.616-.239 3.212-.4 4.746-.474.2653183-.016071.5259543.0752235.7232539.2533386s.3146873.4280869.3257461.6936614zm3.564 15.932c-.0271841-.5514013.3976137-1.0205141.949-1.048 1.254-.063 2.547-.182 3.855-.355.171-1.3.289-2.577.35-3.813.0178633-.3572656.2249685-.6778627.5433013-.8410254.3183327-.1631628.6995305-.1441029 1 .05.3004694.1941028.474562.5337598.4566987.8910254-.077 1.533-.236 3.13-.473 4.744-.0641817.436796-.407204.7798183-.844.844-1.622.239-3.232.4-4.786.477h-.051c-.5329659.0006936-.9728192-.4167272-1-.949z"/><path id="Shape" d="m57.51 54.38c-.68-2.26 2.27-2.65 2.27-5s-2.31-2.35-2.31-4.7 2.31-2.34 2.31-4.69-2.31-2.34-2.31-4.69 2.31-2.35 2.31-4.69-2.31-2.35-2.31-4.69 3.71-3.82 1.97-5.48-3.28 1.89-5.74 1.89-2.46-2.21-4.92-2.21c-2.18 0-2.43 1.74-4.18 2.13-.268862.9635794-.8064815 1.8307076-1.55 2.5-.55.55-.58.63-.58.93 0 .32.05.41.58.95 1.0859394.9454307 1.7155735 2.3102447 1.73 3.75-.052509 1.4716862-.7200077 2.8538438-1.84 3.81-.2055633.1895053-.3899743.4007396-.55.63.29268.7013772.7131515 1.3422571 1.24 1.89.71.82 2.58 3 .19 5.29-.6189798.6328752-1.4647797.99279-2.35 1-1.179514-.0991884-2.2902762-.5963868-3.15-1.41-.4529103-.4343109-1.0058853-.7502967-1.61-.92-.45 0-.58.1-1.12.59-.9912088 1.0348472-2.3620298 1.6200309-3.795 1.6200309s-2.8037912-.5851837-3.795-1.6200309c-.54-.49-.67-.59-1.12-.59s-.58.1-1.12.59c-.9916675 1.0371709-2.3650363 1.6226597-3.8 1.62-1.1736863.0190192-2.3155869-.3817098-3.22-1.13.68.87 1.7 1.39 1.7 2.95 0 2.35-2.31 2.35-2.31 4.69s2.31 2.35 2.31 4.69-3.71 3.82-1.98 5.48c1.75 1.66 3.28-1.89 5.75-1.89s2.46 2.21 4.92 2.21 2.46-2.21 4.92-2.21 2.46 2.21 4.91 2.21 2.46-2.21 4.92-2.21 2.46 2.21 4.91 2.21 2.46-2.21 4.92-2.21 4 3.55 5.73 1.89-1.07-2.34-1.93-5.18zm-21.51-1.52c-2.5042303-.1241003-4.9968601-.4214784-7.46-.89-.8168372-.1575194-1.4526394-.8012692-1.6-1.62-.3658119-1.8974592-.626211-3.8137294-.78-5.74-.0243612-.2642782.0581917-.5272978.2292024-.7302554.1710106-.2029577.4162167-.3289268.6807976-.3497446.5515874-.042034 1.0338066.3687454 1.08.92.1493551 1.8589006.3997251 3.7082998.75 5.54 2.3459097.4611363 4.7221159.7518957 7.11.87.5450941.0236624.9737418.4744054.97 1.02.0013384.2603202-.1014814.5103654-.285558.694442s-.4341218.2868964-.694442.285558zm5.75-6c1.22-.06 2.48-.17 3.77-.34.17-1.3.29-2.58.35-3.81.010807-.2660971.1281537-.5166734.3256369-.6953487s.4585152-.2704416.7243631-.2546513c.5498187.0327844.9722239.4996532.95 1.05-.08 1.53-.24 3.13-.48 4.74-.0653315.4339936-.4060064.7746685-.84.84-1.5577414.2358011-3.1264117.3926681-4.7.47h-.05c-.5333335.0006671-.9733337-.4173332-1-.95-.0222239-.5503468.4001813-1.0172156.95-1.05zm10.11-3.84c-.1330688 2.4632292-.427029 4.9151242-.88 7.34-.1504502.8115505-.7803935 1.4494176-1.59 1.61-2.4242832.4587206-4.8763384.7560407-7.34.89h-.05c-.5522847.0138071-1.0111929-.4227153-1.025-.975s.4227153-1.0111929.975-1.025c2.3697675-.1242789 4.7284541-.4082567 7.06-.85.442405-2.3449007.7263809-4.7169348.85-7.1.1200012-1.9614997.1200012-3.9285003 0-5.89-.1197968-2.390011-.4038001-4.7689556-.85-7.12l-.17-.04c-.6-.11-1.19-.21-1.79-.3-.353693-.0518035-.6528819-.2883648-.7848652-.6205737-.1319833-.3322088-.0767096-.7095947.145-.99s.5761723-.4212298.9298652-.3694263c.62.09 1.23.2 1.85.31l.18.03c.8204561.1611918 1.4589491.8076164 1.61 1.63.4567596 2.4310217.7507463 4.88982.88 7.36.1199887 2.0348994.1199887 4.0751006 0 6.11z"/></g></g></svg>